# xmcd CD database file
#
# Track frame offsets:
#	150
#	9992
#	21110
#	42650
#	57270
#	76182
#	87200
#	97382
#	110235
#	129340
#
# Disc length: 1887 seconds
#
# Revision: 0
# Processed by: cddbd v1.4PL0 Copyright (c) Steve Scherf et al.
# Submitted via: CDex 1.50Beta7
#
DISCID=7e075d0a
DTITLE=Merle Haggard - George Jones - Willie Nelson - Walking the Line
DYEAR=1987
DGENRE=Country
TTITLE0=I Gotta Get Drunk-JN
TTITLE1=No Show Jones-HJ
TTITLE2=Pancho and Lefty-HN
TTITLE3=Yesterday's Wine-HJ
TTITLE4=Half a Man-HN
TTITLE5=Big Butter and Egg Man-H
TTITLE6=Heaven or Hell-N
TTITLE7=Midnight Rider-N
TTITLE8=Are the Good Times Really Over-H
TTITLE9=A Drunk Can't be a Man-J
EXTD=YEAR: 1987
EXTT0=
EXTT1=
EXTT2=
EXTT3=
EXTT4=
EXTT5=
EXTT6=
EXTT7=
EXTT8=
EXTT9=
PLAYORDER=
